# xmcd CD database file
#
# Track frame offsets:
#	150
#	6405
#	17251
#	29323
#	45935
#	60145
#	72485
#	82534
#	101871
#	114238
#	130670
#	144953
#	156724
#
# Disc length: 2269 seconds
#
# Revision: 0
# Processed by: cddbd v1.5.2PL0 Copyright (c) Steve Scherf et al.
# Submitted via: CDex 1.70beta2
#
DISCID=9508db0d
DTITLE=Lenvil Dicks and Daniel Harris - Simply Christmas
DYEAR=2007
DGENRE=Jazz
TTITLE0=Joy To The World
TTITLE1=Noel, Noel
TTITLE2=Away In A Manger
TTITLE3=Silent Night
TTITLE4=O Little Town of Bethlehem
TTITLE5=Oh Tannenbaum
TTITLE6=Hark The Herald Angels Sing
TTITLE7=Silver Bells
TTITLE8=The Christmas Song
TTITLE9=I'll Be Home For Christmas
TTITLE10=White Christmas
TTITLE11=What Child Is This
TTITLE12=The Lord's Prayer
EXTD=YEAR: 2007
EXTT0=
EXTT1=
EXTT2=
EXTT3=
EXTT4=
EXTT5=
EXTT6=
EXTT7=
EXTT8=
EXTT9=
EXTT10=
EXTT11=
EXTT12=
PLAYORDER=
